<svg width="272" height="64" viewBox="0 0 272 64" fill="none" xmlns="http://www.w3.org/2000/svg">
<g clip-path="url(#clip0_1102_41517)">
<path d="M74.0528 5.32555C73.5103 5.32555 73.2108 5.61553 73.2108 6.02347V7.06544V17.667H74.8923V5.98907C74.88 5.60079 74.5732 5.32309 74.0528 5.32555ZM117.206 18.4313C116.623 18.8939 115.892 19.1304 115.149 19.0972C114.231 19.0972 113.445 18.8515 112.94 18.4165C112.189 17.7653 112.225 16.9568 112.225 16.1335V13.536C112.225 12.7078 112.189 11.8944 112.94 11.2505C113.445 10.8057 114.231 10.5673 115.149 10.5673C115.892 10.5355 116.622 10.7718 117.206 11.2333C117.957 11.8796 117.982 12.607 117.974 14.2708V15.4995C117.974 17.0207 117.974 17.7653 117.203 18.4313H117.206ZM172.132 9.97755C172.11 9.58927 171.818 9.32386 171.307 9.32386C170.796 9.32386 170.521 9.56961 170.48 9.9456V12.376C170.48 14.2069 170.561 15.035 169.714 15.7649C169.131 16.2271 168.4 16.4627 167.657 16.4284C166.741 16.4284 165.953 16.1827 165.448 15.7477C164.711 15.1088 164.736 14.3199 164.736 13.4647V12.1475V9.97755C164.719 9.58927 164.429 9.32386 163.909 9.32386C163.388 9.32386 163.121 9.56961 163.089 9.9456V12.376C163.089 14.2069 163.165 15.035 162.323 15.7649C161.738 16.2259 161.007 16.4613 160.263 16.4284C159.348 16.4284 158.565 16.1827 158.054 15.7477C157.487 15.2562 157.374 14.6689 157.35 14.0545V9.95051C157.318 9.60647 157.06 9.36072 156.407 9.32632C155.965 9.36072 155.7 9.60647 155.671 9.9456V16.421H148.243C147.327 16.421 146.539 16.1753 146.034 15.7403C145.312 15.1112 145.297 14.3273 145.297 13.5286C145.297 13.0985 145.297 12.6414 145.297 12.1401V6.02347C145.297 5.61553 144.998 5.32555 144.453 5.32555C143.908 5.32555 143.633 5.60079 143.613 5.98907V9.8301L143.65 12.3859C143.65 14.2167 143.724 15.0449 142.884 15.7747C142.298 16.2351 141.567 16.4704 140.822 16.4382H134.818C134.142 16.4177 133.489 16.1838 132.953 15.7698C132.216 15.126 132.246 14.3248 132.241 13.3123V9.95789C132.216 9.56715 131.917 9.29191 131.394 9.29191C130.871 9.29191 130.564 9.58435 130.564 9.99229V11.0318V13.4622V13.8456C130.564 14.5411 130.486 15.1997 129.85 15.7477C129.344 16.1851 128.564 16.4284 127.641 16.4284H119.602C119.614 16.0991 119.614 15.7403 119.614 15.3668V14.1725C119.614 12.5161 119.553 11.312 118.49 10.3904C117.798 9.79078 116.713 9.31894 115.08 9.31894C113.752 9.31894 112.478 9.67282 111.622 10.4223C110.497 11.4053 110.537 12.6341 110.537 13.8161V15.9566L110.461 16.421H100.833C99.9128 16.421 99.1273 16.1753 98.6241 15.7403C97.8877 15.0916 97.9098 14.2781 97.9098 13.4549V6.02347C97.9098 5.61553 97.6103 5.32555 97.0703 5.32555C96.5302 5.32555 96.2455 5.60079 96.2308 5.98907V13.3001C96.2308 14.3617 96.1939 15.6002 97.3133 16.5759C98.1773 17.3131 99.4488 17.6744 100.777 17.6744L110.672 17.6498C110.814 18.2659 111.15 18.8199 111.631 19.2299C112.488 19.9672 113.762 20.3309 115.09 20.3309C116.722 20.3309 117.807 19.859 118.5 19.2619C118.978 18.8187 119.35 18.2737 119.589 17.667H127.707C129.033 17.667 130.307 17.3131 131.161 16.5685H131.652C132.447 17.259 133.615 17.6129 134.823 17.6621H140.778C142.396 17.6621 143.478 17.1878 144.178 16.5906C144.279 16.5021 144.379 16.4112 144.72 16.5636C145.58 17.3008 146.844 17.6621 148.181 17.6621H157.347V16.9985C158.227 17.4638 159.212 17.6965 160.207 17.6744C161.834 17.6744 162.924 17.2001 163.612 16.6029L164.129 16.5759C164.998 17.3131 166.263 17.6744 167.595 17.6744C169.218 17.6744 170.313 17.2001 171.003 16.6029C172.2 15.5683 172.124 14.1454 172.124 12.1475L172.132 9.97755ZM176.656 16.1581C176.543 16.1497 176.429 16.1638 176.322 16.1994C176.214 16.235 176.114 16.2915 176.029 16.3657C175.943 16.4399 175.873 16.5303 175.822 16.6317C175.771 16.7332 175.741 16.8436 175.733 16.9568C175.756 17.1848 175.863 17.3959 176.033 17.5495C176.203 17.703 176.424 17.7879 176.653 17.7879C176.882 17.7879 177.103 17.703 177.273 17.5495C177.443 17.3959 177.55 17.1848 177.574 16.9568C177.566 16.8443 177.535 16.7344 177.485 16.6336C177.434 16.5328 177.364 16.4429 177.279 16.3692C177.194 16.2955 177.095 16.2393 176.988 16.2039C176.881 16.1685 176.768 16.1546 176.656 16.163V16.1581ZM186.133 9.37301C185.78 9.37143 185.426 9.39277 185.075 9.4369C184.548 9.50187 184.03 9.63401 183.536 9.8301L183.195 9.98738C182.792 10.3167 183.021 11.1448 183.625 10.9704C183.985 10.878 184.351 10.8058 184.719 10.7541C185.091 10.6889 185.467 10.6503 185.844 10.6386C188.453 10.7074 189.089 11.8673 189.197 13.6122C189.145 15.3324 188.46 16.3375 185.844 16.4063H179.128L179.105 17.6719H186.133C189.346 17.5908 190.679 16.0893 190.755 13.5556C190.652 10.9999 189.346 9.45656 186.133 9.37792V9.37301ZM132.553 18.9793C132.324 18.9616 132.097 19.035 131.922 19.1836C131.747 19.3323 131.637 19.5441 131.617 19.773C131.636 20.0047 131.744 20.2199 131.919 20.3731C132.093 20.5263 132.321 20.6055 132.553 20.5938C132.782 20.6046 133.007 20.5246 133.178 20.3711C133.349 20.2175 133.454 20.0027 133.468 19.773C133.46 19.6606 133.43 19.5509 133.38 19.4501C133.33 19.3492 133.26 19.2594 133.175 19.1856C133.09 19.1119 132.991 19.0557 132.884 19.0202C132.778 18.9848 132.665 18.9709 132.553 18.9793ZM130.044 18.9793C129.816 18.9636 129.591 19.0379 129.418 19.1864C129.244 19.3348 129.136 19.5454 129.116 19.773C129.134 20.0054 129.243 20.2213 129.418 20.3747C129.593 20.5281 129.821 20.6067 130.054 20.5938C130.282 20.6033 130.505 20.5226 130.675 20.3691C130.845 20.2157 130.948 20.0016 130.962 19.773C130.954 19.6612 130.925 19.5519 130.875 19.4514C130.826 19.351 130.757 19.2613 130.672 19.1876C130.588 19.1139 130.49 19.0575 130.384 19.0218C130.278 18.986 130.165 18.9716 130.054 18.9793H130.044ZM87.578 6.63538C87.8075 6.64621 88.0322 6.56661 88.2038 6.41365C88.3754 6.26069 88.4803 6.04652 88.4961 5.81704C88.4886 5.7043 88.4589 5.59415 88.4086 5.49302C88.3582 5.39188 88.2883 5.30177 88.2029 5.22791C88.1175 5.15406 88.0183 5.09794 87.911 5.06281C87.8037 5.02768 87.6905 5.01424 87.578 5.02328C87.3493 5.00493 87.1225 5.07821 86.9477 5.22702C86.7728 5.37584 86.664 5.58804 86.6453 5.81704C86.6641 6.04803 86.772 6.26261 86.9461 6.41535C87.1202 6.56809 87.3468 6.647 87.578 6.63538ZM69.0919 5.99152C69.0722 5.60324 68.7679 5.32555 68.2499 5.32801C67.732 5.33046 67.408 5.61799 67.408 6.02593V13.4622C67.408 14.2855 67.4423 15.0989 66.6937 15.7477C66.1905 16.1851 65.4025 16.4284 64.4845 16.4284H54.6044C54.7061 15.9585 54.7563 15.4789 54.7541 14.9982C54.7541 11.3931 52.1865 9.287 49.0102 9.287C48.659 9.28754 48.3081 9.3097 47.9596 9.35335C47.433 9.41966 46.9168 9.55175 46.423 9.74654L46.0842 9.90382C45.6792 10.2356 45.9075 11.0637 46.5113 10.8868C47.0833 10.7541 47.0023 10.7738 47.6012 10.6706C47.9466 10.6099 48.2963 10.5762 48.6469 10.5698H48.9267C51.2709 10.5698 53.1684 12.1721 53.1684 14.8728C53.1721 15.3997 53.1002 15.9244 52.9549 16.4309H39.9844C39.3317 16.4131 38.7026 16.1827 38.1924 15.7747C37.348 15.0375 37.4217 14.2167 37.4217 12.3859V9.9284C37.3898 9.55978 37.0952 9.3042 36.5994 9.3042C36.1035 9.3042 35.7967 9.57206 35.777 9.95789V12.1524C35.777 12.6439 35.777 13.1354 35.777 13.5507C35.7599 14.6074 35.6494 15.2144 35.0112 15.7624C34.4272 16.2235 33.6971 16.4589 32.9542 16.426H27.8975C27.151 16.4384 26.422 16.1986 25.8282 15.7452C25.0771 15.0965 25.1139 14.283 25.1139 13.4598V9.99721C25.1139 9.58681 24.8169 9.29928 24.272 9.29928C23.727 9.29928 23.4497 9.57206 23.4325 9.9628V13.7817C23.4006 14.6984 23.2607 15.2562 22.6715 15.7649C22.0883 16.2238 21.3606 16.4591 20.6194 16.4284H15.6708C14.9508 16.4299 14.2509 16.1903 13.6825 15.7477C12.9314 15.0989 12.9682 14.2855 12.9682 13.4647V9.99966C12.9682 9.58927 12.6712 9.30666 12.1312 9.30666C11.5911 9.30666 11.3039 9.58435 11.2917 9.96526V13.3025V13.8726C11.2499 14.7352 11.1027 15.2709 10.5307 15.7649C10.0227 16.1766 9.39228 16.4074 8.73881 16.421H4.60514C3.68218 16.421 2.88687 16.1753 2.39593 15.7403C1.65953 15.0916 1.68653 14.2781 1.68653 13.4573V9.99966C1.68653 9.58927 1.38461 9.30666 0.842122 9.30666C0.299639 9.30666 0.0173516 9.58435 0.000168878 9.96526V13.3025C0.000168878 14.3715 -0.0391058 15.6027 1.08023 16.5759C1.94918 17.3131 3.21579 17.6793 4.54377 17.6793H8.73881C10.192 17.6203 11.1788 17.1878 11.8243 16.6176C11.9274 16.5218 12.0256 16.4309 12.3717 16.5832C13.1965 17.2959 14.4017 17.6572 15.6684 17.6817H20.563C22.1929 17.6817 23.2778 17.2099 23.9725 16.6127C24.0781 16.5169 24.1763 16.4235 24.5273 16.5783C25.3594 17.2984 26.5818 17.6547 27.8656 17.6768H32.8928C34.5203 17.6768 35.6052 17.2025 36.2999 16.6054C36.4044 16.5162 36.5021 16.4193 36.592 16.3154C36.6858 16.4181 36.7858 16.515 36.8915 16.6054C37.5346 17.1681 38.5238 17.6129 39.9745 17.6694H55.223H64.5336C65.864 17.6694 67.1355 17.3156 67.9922 16.5709C69.1164 15.588 69.0821 14.3592 69.0821 13.2951L69.0919 5.99152ZM25.546 18.9793C25.3168 18.9615 25.0899 19.0349 24.9144 19.1835C24.7389 19.332 24.6289 19.5439 24.6083 19.773C24.6271 20.0051 24.7356 20.2207 24.9107 20.374C25.0858 20.5272 25.3137 20.6061 25.546 20.5938C25.775 20.6039 25.9987 20.5235 26.1691 20.37C26.3394 20.2165 26.4427 20.0021 26.4566 19.773C26.4492 19.661 26.4197 19.5515 26.3698 19.4508C26.3199 19.3502 26.2507 19.2605 26.1661 19.1867C26.0814 19.1129 25.9831 19.0566 25.8767 19.021C25.7703 18.9855 25.6579 18.9713 25.546 18.9793ZM23.0299 18.9793C22.8008 18.9615 22.5739 19.0349 22.3983 19.1835C22.2228 19.332 22.1129 19.5439 22.0922 19.773C22.1111 20.0042 22.2189 20.2191 22.3929 20.3722C22.5669 20.5253 22.7936 20.6048 23.025 20.5938C23.2547 20.6046 23.4794 20.5246 23.6506 20.3711C23.8219 20.2175 23.926 20.0027 23.9406 19.773C23.9328 19.6606 23.9029 19.5509 23.8527 19.4501C23.8024 19.3492 23.7327 19.2594 23.6476 19.1856C23.5625 19.1119 23.4637 19.0557 23.3569 19.0202C23.25 18.9848 23.1373 18.9709 23.025 18.9793H23.0299ZM6.6597 18.9793C6.43095 18.9622 6.20467 19.0359 6.0297 19.1844C5.85473 19.3329 5.7451 19.5443 5.72447 19.773C5.74331 20.0047 5.85146 20.2199 6.02602 20.3731C6.20058 20.5263 6.42785 20.6055 6.6597 20.5938C6.88935 20.6046 7.11404 20.5246 7.28531 20.3711C7.45659 20.2175 7.56073 20.0027 7.57529 19.773C7.56752 19.6606 7.53763 19.5509 7.48735 19.4501C7.43707 19.3492 7.36739 19.2594 7.2823 19.1856C7.19722 19.1119 7.09842 19.0557 6.99157 19.0202C6.88472 18.9848 6.77194 18.9709 6.6597 18.9793V18.9793ZM92.1143 9.97017C92.0897 9.58435 91.8001 9.31894 91.2846 9.31894C90.7691 9.31894 90.4966 9.56469 90.4647 9.9456V15.035C90.4647 16.8609 90.5408 17.6916 89.6964 18.419C89.1115 18.8838 88.378 19.1204 87.632 19.0849C86.714 19.0849 85.9285 18.8392 85.4228 18.4042C84.6864 17.753 84.7134 16.9445 84.7134 16.1212V11.0588V10.0144C84.7134 9.60893 84.4115 9.31894 83.869 9.31894C83.3265 9.31894 83.0418 9.58927 83.0246 9.98V15.9566C83.0246 17.028 82.9902 18.2592 84.112 19.2299C84.9687 19.9672 86.2451 20.3309 87.5731 20.3309C89.203 20.3309 90.288 19.859 90.9827 19.2619C92.1781 18.2248 92.1069 16.8167 92.1069 14.804L92.1143 9.97017ZM36.5454 18.9793C36.3171 18.9623 36.0914 19.0361 35.9172 19.1847C35.743 19.3333 35.6344 19.5447 35.615 19.773C35.6327 20.0043 35.7398 20.2194 35.9135 20.3728C36.0873 20.5261 36.314 20.6054 36.5454 20.5938C36.7749 20.6052 36.9997 20.5254 37.1707 20.3716C37.3417 20.2179 37.4452 20.0028 37.4585 19.773C37.451 19.6607 37.4214 19.551 37.3714 19.4502C37.3214 19.3494 37.2519 19.2596 37.167 19.1858C37.0822 19.112 36.9835 19.0557 36.8768 19.0203C36.7701 18.9849 36.6575 18.9709 36.5454 18.9793Z" fill="#020203"/>
<path d="M32.5101 30.829C31.2828 30.2785 30.1708 29.9516 30.1708 28.9342C30.1708 27.9512 31.1527 27.3762 32.6721 27.3762C32.9733 27.377 33.2735 27.4091 33.5681 27.472C34.1817 27.5826 34.1253 27.5826 34.7021 27.7178C35.3698 27.9144 35.6226 26.8896 35.0114 26.6709C34.1545 26.338 33.2451 26.1607 32.326 26.1475C30.0652 26.172 28.4869 27.3762 28.4869 29.0669C28.4869 30.6569 29.7977 31.3671 31.3883 32.0331C32.7335 32.6008 34.3339 33.1808 34.3339 34.3653C34.3339 35.3482 33.4355 36.1469 31.8989 36.1469C30.8483 36.1102 29.8268 35.792 28.941 35.2254L28.1359 36.2305C29.2642 37.0058 30.6041 37.4135 31.9725 37.3978C34.5597 37.3978 36.0718 36.0191 36.0718 34.2375C36.0718 32.1118 33.6172 31.318 32.515 30.8314L32.5101 30.829ZM189.469 35.3089C188.789 35.8791 188.028 35.9847 186.556 35.9847H185.174V32.2543H186.202C187.474 32.2543 188.696 32.2101 189.442 32.8539C189.622 33.0036 189.766 33.1916 189.863 33.4043C189.96 33.617 190.009 33.8488 190.004 34.0826C190.002 34.3139 189.953 34.5422 189.859 34.7535C189.765 34.9648 189.629 35.1547 189.46 35.3114L189.469 35.3089ZM185.174 27.5114H186.259C187.29 27.5114 188.468 27.4622 189.143 28.0962C189.304 28.2503 189.432 28.4368 189.516 28.6434C189.601 28.8501 189.641 29.0723 189.634 29.2955C189.644 29.5343 189.597 29.772 189.497 29.9891C189.397 30.2062 189.247 30.3963 189.059 30.5439C188.348 31.1091 187.169 31.1435 186.138 31.1435H185.181L185.174 27.5114ZM189.31 31.6301C189.873 31.5427 190.386 31.2552 190.755 30.8201C191.123 30.3851 191.323 29.8316 191.318 29.2611C191.322 28.8634 191.236 28.4698 191.066 28.1104C190.896 27.751 190.646 27.4352 190.336 27.187C189.437 26.4055 188.254 26.3613 186.983 26.3613H183.546V37.1742H185.755C188.001 37.1742 189.572 37.2061 190.773 36.1666C191.074 35.9035 191.313 35.5774 191.475 35.2113C191.636 34.8452 191.715 34.4482 191.706 34.0482C191.706 32.5222 190.564 31.7898 189.31 31.6325V31.6301ZM174.069 35.3188C173.396 35.8987 172.623 35.997 171.162 35.997H169.78V32.2543H170.809C172.076 32.2543 173.295 32.2101 174.044 32.8539C174.224 33.0031 174.369 33.191 174.467 33.4038C174.564 33.6165 174.613 33.8485 174.609 34.0826C174.606 34.3132 174.556 34.5408 174.463 34.7519C174.371 34.963 174.236 35.1533 174.069 35.3114V35.3188ZM169.78 27.5114H170.865C171.899 27.5114 173.075 27.4622 173.747 28.0962C173.91 28.2496 174.037 28.436 174.122 28.6428C174.207 28.8496 174.246 29.0721 174.238 29.2955C174.251 29.5348 174.204 29.7736 174.104 29.9912C174.003 30.2087 173.851 30.3984 173.661 30.5439C172.952 31.1091 171.771 31.1435 170.74 31.1435H169.788L169.78 27.5114ZM173.919 31.6301C174.481 31.5411 174.992 31.2529 175.359 30.818C175.726 30.3831 175.925 29.8305 175.92 29.2611C175.924 28.8634 175.838 28.4698 175.668 28.1104C175.498 27.751 175.248 27.4352 174.938 27.187C174.032 26.4055 172.856 26.3613 171.585 26.3613H168.985C168.371 26.3613 168.155 26.6611 168.153 27.4352V37.1717H170.362C172.606 37.1717 174.177 37.2036 175.38 36.1641C175.68 35.9008 175.92 35.5747 176.082 35.2087C176.243 34.8428 176.323 34.4458 176.315 34.0458C176.315 32.5197 175.173 31.7874 173.921 31.6301H173.919ZM158.729 33.1758L160.818 27.907L162.939 33.1758H158.729ZM162.009 27.101C161.763 26.5284 161.322 26.3637 160.796 26.3637C160.555 26.3503 160.316 26.4147 160.114 26.5474C159.912 26.6801 159.758 26.8741 159.674 27.101L159.282 27.9611L155.423 37.1668H157.112L158.253 34.3481H163.408L164.545 37.1668H166.307L162.485 28.1306L162.009 27.101ZM121.875 33.1758L123.974 27.907L126.09 33.1758H121.875ZM125.167 27.1108C124.921 26.5382 124.479 26.3735 123.959 26.3735C123.717 26.3592 123.478 26.4232 123.275 26.556C123.073 26.6888 122.918 26.8833 122.835 27.1108L122.442 27.9709L118.583 37.1766H120.279L121.421 34.3579H126.576L127.715 37.1766H129.477L125.655 28.1405L125.167 27.1108ZM93.8303 33.1758L95.9266 27.907L98.0376 33.1758H93.8303ZM97.1171 27.1108C96.8717 26.5382 96.4249 26.3735 95.9119 26.3735C95.6697 26.3597 95.4295 26.4238 95.2263 26.5565C95.0232 26.6891 94.8677 26.8834 94.7827 27.1108L94.3924 27.9709L90.5337 37.1766H92.2176L93.359 34.3579H98.5138L99.6503 37.1766H101.413L97.5909 28.1405L97.1171 27.1108ZM61.5293 33.1758L63.6256 27.907L65.7366 33.1758H61.5293ZM64.8185 27.1108C64.5731 26.5382 64.1263 26.3735 63.6133 26.3735C63.3708 26.3596 63.1302 26.4236 62.9266 26.5562C62.723 26.6888 62.5671 26.8832 62.4817 27.1108L62.0938 27.9709L58.2326 37.1766H59.919L61.0604 34.3579H66.2152L67.3567 37.1766H69.1167L65.2947 28.1306L64.8185 27.1108ZM15.9558 31.3991H15.3765V27.5408H16.6701C17.6814 27.5408 18.5651 27.5261 19.2426 28.1061C19.4172 28.2723 19.5553 28.473 19.6483 28.6956C19.7413 28.9181 19.787 29.1575 19.7826 29.3987C19.7837 29.6562 19.7289 29.9108 19.6221 30.145C19.5153 30.3792 19.359 30.5874 19.164 30.7552C18.3785 31.4335 17.1586 31.3991 15.9582 31.3991H15.9558ZM19.7482 32.5492C19.4469 32.2922 19.0706 32.1396 18.6755 32.1142C19.4193 32.0498 20.1233 31.7503 20.6859 31.259C20.9398 31.0223 21.1398 30.7336 21.2724 30.4126C21.405 30.0916 21.467 29.7458 21.4542 29.3987C21.4632 28.9901 21.3796 28.5847 21.2095 28.2131C21.0394 27.8415 20.7874 27.5133 20.4724 27.2533C19.4635 26.3809 18.1674 26.3932 16.5032 26.3932H14.5812C14.0583 26.3932 13.7048 26.639 13.7245 27.1575V37.1668H15.3765V32.5492H16.1644C17.8532 32.5492 18.2632 32.6917 19.1297 34.3579L20.573 37.1668H22.3379L20.7277 34.0507C20.3865 33.3872 20.1287 32.8711 19.7458 32.5492H19.7482ZM8.27018 34.8961C7.19994 35.8324 5.85478 35.997 4.17824 35.997H2.62443V27.5556H3.71185C5.86951 27.5556 7.10667 27.6391 8.19654 28.5754C9.24469 29.4823 9.52943 30.5807 9.52943 31.6792C9.52943 32.9842 9.11704 34.1367 8.27018 34.8887V34.8961ZM9.45579 27.762C7.95353 26.4669 6.13216 26.3858 3.71185 26.3858H1.77511C1.25227 26.3858 0.940524 26.6635 0.957707 27.1771V37.1594H3.6824C6.00697 37.1594 7.86762 37.0611 9.44597 35.707C10.0209 35.213 10.4794 34.5975 10.7884 33.9049C11.0974 33.2123 11.2492 32.4597 11.233 31.7014C11.2358 30.9567 11.0786 30.2201 10.772 29.5417C10.4653 28.8632 10.0164 28.2588 9.45579 27.7694V27.762ZM179.683 26.3563C179.192 26.3563 178.875 26.6021 178.838 26.9732V37.1668H180.529V26.9683C180.488 26.6021 180.196 26.3563 179.683 26.3563V26.3563ZM152.927 26.3563C152.421 26.3563 152.114 26.6021 152.087 26.9781V30.8953H146.355V26.9781C146.319 26.6095 146.029 26.3563 145.516 26.3563C145.003 26.3563 144.721 26.6021 144.669 26.9486V37.1668H146.355V32.124H152.09V37.1668H153.769V26.9609C153.727 26.6021 153.43 26.3563 152.929 26.3563H152.927ZM132.815 26.9633C132.774 26.6046 132.474 26.3613 131.981 26.3588C131.487 26.3563 131.163 26.6193 131.136 26.9904V37.1668H138.01V35.938H132.815V26.9633ZM112.292 26.9781C112.262 26.6095 111.992 26.3563 111.531 26.3563C111.069 26.3563 110.78 26.6291 110.763 27.0174V27.472L110.797 34.9944L105.382 27.1132C104.997 26.6021 104.815 26.3932 104.273 26.376C103.872 26.376 103.237 26.4841 103.237 27.1329V37.1766H104.771L104.734 28.5754L110.625 37.1766H112.292V26.9781ZM86.5498 26.3662C86.337 26.3724 86.1303 26.4381 85.9529 26.5558C85.7755 26.6735 85.6345 26.8385 85.5458 27.0322L82.232 35.1885L78.8372 27.0543C78.7425 26.8466 78.5895 26.671 78.3968 26.5488C78.2042 26.4266 77.9802 26.3632 77.7522 26.3662C77.3545 26.3662 76.7703 26.4645 76.5961 27.1403L75.3687 37.1668H76.8832L77.8381 28.4305L81.4563 37.1668H82.8334L86.373 28.4305L87.4064 37.1668H89.0511L87.7624 27.1329C87.6102 26.4645 87.026 26.3662 86.535 26.3662H86.5498ZM72.5434 26.9756C72.5115 26.6316 72.2537 26.3858 71.6008 26.3563C71.1614 26.3858 70.8963 26.6316 70.8644 26.9756V37.1668H72.5483V26.9756H72.5434ZM52.0984 26.9904C52.064 26.6193 51.767 26.3637 51.2564 26.3637C50.7459 26.3637 50.4317 26.639 50.4145 27.0297V37.1668H57.2876V35.938H52.1009L52.0984 26.9904ZM47.5499 27.0149C47.5278 26.6316 47.2406 26.3637 46.7276 26.3637C46.2145 26.3637 45.9421 26.6095 45.9028 26.9904V32.0773C45.9028 33.9082 45.9789 34.7363 45.1394 35.4662C44.5537 35.9276 43.822 36.163 43.0775 36.1297C42.1619 36.1297 41.3764 35.884 40.8683 35.4515C40.1196 34.7978 40.1589 33.9893 40.1589 33.166V27.0616C40.1589 26.6562 39.8594 26.3637 39.3145 26.3637C38.7695 26.3637 38.4897 26.639 38.475 27.0297V32.9989C38.475 34.0753 38.4332 35.3065 39.5599 36.2747C40.4215 37.012 41.693 37.3781 43.021 37.3781C44.6509 37.3781 45.7212 36.9063 46.4306 36.3091C47.6235 35.2745 47.5499 33.8516 47.5499 31.8513V27.0149Z" fill="#020203"/>
<path d="M118.207 41.3961C118.217 41.5781 118.172 41.759 118.078 41.9153C117.984 42.0715 117.845 42.196 117.68 42.2726C117.515 42.3492 117.33 42.3744 117.15 42.345C116.971 42.3155 116.804 42.2328 116.672 42.1075C116.539 41.9822 116.447 41.82 116.408 41.6419C116.369 41.4639 116.384 41.2781 116.451 41.1086C116.518 40.9391 116.635 40.7937 116.785 40.6912C116.936 40.5887 117.114 40.5337 117.296 40.5335C117.414 40.5249 117.532 40.541 117.643 40.5807C117.754 40.6203 117.856 40.6827 117.941 40.7639C118.027 40.845 118.095 40.9431 118.141 41.052C118.186 41.1608 118.209 41.278 118.207 41.3961V41.3961Z" fill="#359946"/>
<path d="M187.784 44.9149C185.646 44.8682 183.594 47.9842 183.594 47.9842L183.564 46.1067L182.185 46.1215V48.6945H179.193C178.471 48.6945 178.456 47.9572 178.456 47.9572L178.385 44.878L176.804 44.9026L176.785 47.9892C176.814 48.7264 176.34 48.7264 176.34 48.7264L172.442 48.7018C172.319 45.4481 169.128 44.8682 169.128 44.8682V46.3844C170.81 46.7875 170.847 48.6945 170.847 48.6945H167.238L166.703 50.0117H176.942C177.369 49.9969 177.84 49.1024 177.84 49.1024C177.84 49.1024 178.373 49.9822 178.765 49.9895L191.039 50.0067C190.975 46.4164 189.782 44.9468 187.784 44.9149ZM184.566 48.719C185.864 46.1461 187.428 46.1485 187.428 46.1485C187.428 46.1485 189.465 45.9298 189.392 48.6945L184.566 48.719Z" fill="#309A47"/>
<path d="M178.933 50.8867H177.617V52.2555H178.933V50.8867Z" fill="#309A47"/>
<path d="M176.804 50.8867H175.488V52.2555H176.804V50.8867Z" fill="#309A47"/>
<path d="M159.726 50.8867H158.41V52.2555H159.726V50.8867Z" fill="#309A47"/>
<path d="M147.089 43.918H145.805V45.2548H147.089V43.918Z" fill="#309A47"/>
<path d="M145.171 43.918H143.887V45.2548H145.171V43.918Z" fill="#309A47"/>
<path d="M157.722 50.8867H156.406V52.2555H157.722V50.8867Z" fill="#309A47"/>
<path d="M163.108 41.2391L164.581 41.2711L164.613 48.8327C164.613 48.8327 164.723 50.2433 163.297 50.2433C163.297 50.2433 160.695 50.2752 159.882 50.2752C159.45 50.2752 158.962 49.6043 158.805 49.2603C158.805 49.2603 158.505 50.086 157.86 50.2679C157.57 50.3514 152.999 50.2679 152.999 50.2679C152.651 50.2679 151.996 49.8182 151.996 49.0195C151.996 47.0043 151.922 41.1875 151.922 41.1875H153.552L153.52 48.152C153.52 48.152 153.395 48.9974 154.178 48.9679H157.305C157.305 48.9679 157.703 48.8646 157.703 48.2773V45.1145H159.308L159.323 48.2675C159.322 48.3568 159.339 48.4454 159.373 48.5281C159.406 48.6107 159.457 48.6857 159.52 48.7485C159.584 48.8113 159.659 48.8607 159.742 48.8938C159.825 48.9268 159.913 48.9428 160.003 48.9408L162.457 48.9261C162.668 48.8962 162.861 48.7904 163 48.6285C163.139 48.4666 163.214 48.2596 163.211 48.0463L163.108 41.2391Z" fill="#309A47"/>
<path d="M148.693 45.2174L150.085 45.2051V49.4368C150.085 49.4368 150.175 50.2945 149.348 50.3019H143.825C142.824 50.3019 140.934 48.8692 140.934 46.7533C140.934 46.2987 140.934 45.8145 140.934 45.2641H142.225C142.181 48.0902 143.332 48.9232 144.5 49.0191H148.705L148.693 45.2174Z" fill="#309A47"/>
<path d="M63.4648 40.9075C64.2872 40.7625 65.1215 40.6967 65.9563 40.7109C67.2082 40.7109 68.1263 40.9763 68.7252 41.4801C69.0226 41.7379 69.2592 42.0585 69.4179 42.4189C69.5767 42.7792 69.6536 43.1703 69.6433 43.564C69.663 43.9568 69.6014 44.3495 69.4625 44.7174C69.3235 45.0853 69.1101 45.4205 68.8357 45.702C68.1533 46.3852 67.083 46.7071 65.8704 46.7071C65.5912 46.7132 65.312 46.6951 65.0358 46.6531L65.0776 50.1967H63.5041L63.4648 40.9075ZM65.0358 45.2965C65.3102 45.3534 65.5905 45.3765 65.8704 45.3653C67.1518 45.3653 67.9323 44.7362 67.9323 43.6451C67.9323 42.5958 67.2082 42.0379 66.0251 42.0379C65.6958 42.0316 65.3667 42.0596 65.0432 42.1215L65.0358 45.2965Z" fill="#359946"/>
<path d="M71.1377 40.2363H72.7087V44.2887H72.7382C72.9574 43.9573 73.2584 43.6881 73.612 43.5072C73.9813 43.3017 74.3973 43.195 74.8197 43.1976C76.0102 43.1976 76.9848 43.9348 76.9848 46.1072L76.9602 50.1965L75.4874 50.1596V46.3432C75.4874 45.3602 75.1143 44.6106 74.1398 44.6106C73.8401 44.6089 73.5473 44.7011 73.3026 44.8743C73.0578 45.0475 72.8734 45.293 72.775 45.5764C72.7196 45.7426 72.6955 45.9175 72.7038 46.0925V50.1596H71.1328L71.1377 40.2363Z" fill="#359946"/>
<path d="M82.8952 50.1595L82.7848 49.405H82.743C82.4995 49.6989 82.1924 49.9334 81.8449 50.0909C81.4975 50.2484 81.1188 50.3248 80.7376 50.3143C79.3752 50.3143 78.6094 49.3313 78.6094 48.2869C78.6094 46.5667 80.1264 45.7016 82.6326 45.7139V45.6033C82.6326 45.1561 82.4509 44.4139 81.2531 44.4139C80.5008 44.4293 79.7617 44.6141 79.0905 44.9546V43.7995C79.8416 43.3863 80.6883 43.1786 81.5452 43.1975C83.7176 43.1975 84.3435 44.5835 84.3435 46.0653V48.5228C84.3435 49.1372 84.3705 49.7515 84.4024 50.157L82.8952 50.1595ZM82.6743 46.8321C81.4617 46.805 80.308 47.0778 80.308 48.105C80.295 48.2373 80.3115 48.3709 80.3563 48.496C80.401 48.6212 80.473 48.7349 80.5669 48.8289C80.6608 48.9229 80.7743 48.9949 80.8993 49.0397C81.0243 49.0845 81.1577 49.101 81.2899 49.088C81.5827 49.0931 81.8696 49.0052 82.1095 48.837C82.3494 48.6688 82.5299 48.429 82.6252 48.1517C82.6634 48.0301 82.6825 47.9032 82.6817 47.7757L82.6743 46.8321Z" fill="#359946"/>
<path d="M106.88 50.1596L106.777 49.3953H106.735C106.492 49.6889 106.185 49.9234 105.838 50.0809C105.491 50.2384 105.113 50.3149 104.732 50.3046C103.367 50.3046 102.602 49.3216 102.602 48.2772C102.602 46.5569 104.119 45.6919 106.625 45.7042V45.5936C106.625 45.1463 106.443 44.4042 105.248 44.4042C104.495 44.4193 103.755 44.6041 103.083 44.9448V43.7898C103.834 43.3763 104.68 43.1686 105.537 43.1877C107.707 43.1877 108.333 44.5738 108.333 46.0556V48.5131C108.333 49.1275 108.36 49.7418 108.392 50.1473L106.88 50.1596ZM106.657 46.8322C105.447 46.8051 104.29 47.0779 104.29 48.1051C104.278 48.2374 104.295 48.3707 104.34 48.4957C104.384 48.6206 104.456 48.7341 104.55 48.828C104.644 48.9219 104.757 48.9939 104.882 49.0389C105.007 49.0838 105.14 49.1007 105.272 49.0881C105.565 49.0936 105.852 49.0059 106.092 48.8376C106.332 48.6694 106.513 48.4293 106.608 48.1518C106.646 48.0302 106.665 47.9033 106.664 47.7758L106.657 46.8322Z" fill="#359946"/>
<path d="M86.1595 45.5467C86.1595 44.6251 86.1472 43.9665 86.1055 43.3522H87.5955L87.6495 44.6522H87.7059C87.8246 44.2469 88.0668 43.8888 88.3986 43.628C88.7304 43.3672 89.1353 43.2166 89.5567 43.1974C89.693 43.196 89.829 43.2108 89.9618 43.2416V44.8611C89.7963 44.8259 89.6277 44.8078 89.4586 44.807C89.0889 44.7986 88.7289 44.9263 88.447 45.1659C88.1651 45.4055 87.9809 45.7404 87.9293 46.107C87.8936 46.2817 87.8747 46.4595 87.8728 46.6378V50.1594H86.1546L86.1595 45.5467Z" fill="#359946"/>
<path d="M91.1111 45.3797C91.1111 44.5957 91.0964 43.9396 91.0547 43.3523H92.5275L92.5962 44.3598H92.638C92.8492 43.9962 93.1545 43.6963 93.5217 43.4917C93.8889 43.2871 94.3044 43.1855 94.7244 43.1974C95.1292 43.1875 95.5271 43.3031 95.8637 43.5283C96.2002 43.7536 96.4591 44.0775 96.6047 44.4557H96.6317C96.8408 44.1102 97.1274 43.8182 97.4687 43.6029C97.8673 43.3242 98.3452 43.1819 98.8311 43.1974C99.9602 43.1974 101.102 43.9666 101.102 46.1464V50.157H99.43V46.3971C99.43 45.2642 99.0397 44.5933 98.2199 44.5933C97.9511 44.6032 97.6918 44.6958 97.4775 44.8585C97.2631 45.0212 97.1041 45.2461 97.022 45.5025C96.9719 45.6895 96.9439 45.8817 96.9385 46.0751V50.157H95.2694V46.225C95.2694 45.274 94.8938 44.6031 94.0985 44.6031C93.8165 44.6163 93.5459 44.7186 93.3254 44.8951C93.105 45.0717 92.9459 45.3136 92.8711 45.5861C92.8035 45.7641 92.771 45.9536 92.7754 46.1439V50.1693H91.1038L91.1111 45.3797Z" fill="#359946"/>
<path d="M114.97 50.0538C114.606 50.2209 113.897 50.2995 113.048 50.2995C110.932 50.2995 109.555 48.943 109.555 46.832C109.555 44.7923 110.946 43.1974 113.328 43.1974C113.896 43.1931 114.459 43.3025 114.984 43.5193V44.807C114.467 44.6283 113.924 44.5386 113.377 44.5416C113.084 44.5328 112.793 44.5839 112.521 44.692C112.249 44.8 112.002 44.9626 111.795 45.1697C111.588 45.3769 111.425 45.6243 111.318 45.8966C111.21 46.169 111.159 46.4605 111.167 46.7534C111.167 48.1492 112.216 48.9356 113.377 48.9356C113.924 48.9381 114.467 48.8484 114.984 48.6702L114.97 50.0538Z" fill="#359946"/>
<path d="M118.032 43.3379H116.52V50.1451H118.032V43.3379Z" fill="#359946"/>
<path d="M121.017 47.2379C121.058 48.4666 122.018 48.9999 123.103 48.9999C123.819 48.9891 124.531 48.8976 125.227 48.7271V50.0541C124.642 50.2999 123.835 50.2999 122.86 50.2999C120.651 50.2999 119.367 48.9433 119.367 46.8594C119.367 44.9721 120.509 43.1953 122.679 43.1953C124.848 43.1953 125.602 45.0138 125.602 46.5104C125.604 46.7532 125.586 46.9957 125.548 47.2354L121.017 47.2379ZM123.994 46.0362C124.009 45.407 123.732 44.3724 122.59 44.3724C121.532 44.3724 121.085 45.3382 121.017 46.0362H123.994Z" fill="#359946"/>
<path d="M126.886 48.7583C127.447 48.9698 128.042 49.0756 128.641 49.0704C129.392 49.0704 129.726 48.7607 129.726 48.3135C129.726 47.8662 129.446 47.6155 128.612 47.3305C127.289 46.8685 126.734 46.141 126.746 45.3448C126.746 44.1431 127.728 43.2044 129.309 43.2044C129.931 43.1973 130.545 43.3362 131.103 43.6098L131.062 44.7575C130.77 44.5879 129.935 44.4356 129.343 44.4356C128.752 44.4356 128.381 44.7255 128.381 45.1408C128.381 45.5562 128.703 45.7847 129.564 46.0919C130.792 46.5392 131.361 47.1683 131.376 48.1734C131.376 49.4021 130.414 50.3237 128.619 50.2991C128.04 50.3165 127.464 50.211 126.928 49.9894L126.886 48.7583Z" fill="#359946"/>
<path d="M265.354 0H213.715C210.045 0 207.07 2.97837 207.07 6.65238V57.3476C207.07 61.0216 210.045 64 213.715 64H265.354C269.024 64 271.999 61.0216 271.999 57.3476V6.65238C271.999 2.97837 269.024 0 265.354 0Z" fill="#2C9137"/>
<path d="M214.932 58.4579C229.94 30.1158 245.588 35.0308 261.897 5.55335C261.91 5.52988 261.915 5.50224 261.909 5.47587C261.903 5.44951 261.887 5.42633 261.865 5.41092C261.843 5.3955 261.816 5.38896 261.789 5.39258C261.762 5.3962 261.738 5.40972 261.72 5.43048C260.645 6.78209 258.637 8.9717 254.199 9.05034L246.064 9.0233C246.064 9.0233 242.323 8.73086 242.365 13.0241L242.051 24.7634C242.051 24.7634 242.051 27.2725 238.708 27.2725C238.708 27.2725 234.618 27.764 234.618 24.7634L234.373 12.8004C234.373 12.8004 234.913 9.07 231.11 9.02576H217.151C217.151 9.02576 215.285 8.78001 215.285 10.8541V23.2472C215.285 23.2472 214.809 26.5107 218.898 26.8449L224.586 26.7614C224.586 26.7614 226.694 26.5156 226.675 29.7742L226.633 34.5589C226.632 34.8364 226.572 35.1104 226.456 35.3625C226.167 35.972 225.448 36.9132 223.756 36.8837H218.395C218.275 36.9034 215.231 37.3629 215.229 40.1448L214.922 58.4554C214.922 58.4554 214.929 58.4628 214.932 58.4579Z" fill="white"/>
<path d="M263.25 6.61341C246.411 36.5946 229.184 32.8936 216.413 59.6629C216.399 59.6864 216.395 59.714 216.401 59.7404C216.407 59.7667 216.423 59.7899 216.445 59.8053C216.467 59.8208 216.494 59.8273 216.521 59.8237C216.548 59.8201 216.572 59.8065 216.589 59.7858C217.669 58.4366 219.925 56.0062 224.363 55.9349L232.498 55.9816C232.498 55.9816 236.239 56.2814 236.205 51.9956L236.546 40.2562C236.546 40.2562 236.546 37.7472 239.894 37.7545C239.894 37.7545 243.986 37.263 243.979 40.2734L244.202 52.2364C244.202 52.2364 243.853 56.0529 247.452 56.0086L261.667 56.0308C261.667 56.0308 263.751 56.2888 263.631 53.8977L263.569 41.8143C263.569 41.8143 263.815 38.5532 259.718 38.2092L254.276 38.2804C254.276 38.2804 251.92 38.5262 251.949 35.2626L251.998 30.4779C251.999 30.2 252.061 29.9257 252.18 29.6743C252.469 29.0649 253.191 28.1261 254.88 28.1581H259.976C260.096 28.1409 263.145 27.6863 263.15 24.9044L263.253 6.59375C263.253 6.59375 263.253 6.60849 263.25 6.61341Z" fill="white"/>
</g>
<defs>
<clipPath id="clip0_1102_41517">
<rect width="272" height="64" fill="white"/>
</clipPath>
</defs>
</svg>
